
<svg xmlns="http://www.w3.org/2000/svg" xmlns:xlink="http://www.w3.org/1999/xlink" width="96px" height="96px" viewBox="0 0 96 96" version="1.1">
<defs>
<filter id="alpha" filterUnits="objectBoundingBox" x="0%" y="0%" width="100%" height="100%">
  <feColorMatrix type="matrix" in="SourceGraphic" values="0 0 0 0 1 0 0 0 0 1 0 0 0 0 1 0 0 0 1 0"/>
</filter>
<mask id="mask0">
  <g filter="url(#alpha)">
<rect x="0" y="0" width="96" height="96" style="fill:rgb(0%,0%,0%);fill-opacity:0.2;stroke:none;"/>
  </g>
</mask>
<clipPath id="clip1">
  <rect x="0" y="0" width="96" height="96"/>
</clipPath>
<g id="surface5" clip-path="url(#clip1)">
<path style=" stroke:none;fill-rule:nonzero;fill:rgb(0%,0%,0%);fill-opacity:1;" d="M 39 6.375 C 11.695312 6.375 6 12.195312 6 39.375 L 6 57.375 C 6 84.554688 11.695312 90.375 39 90.375 L 57 90.375 C 84.304688 90.375 90 84.554688 90 57.375 L 90 39.375 C 90 12.195312 84.304688 6.375 57 6.375 "/>
</g>
<linearGradient id="linear0" gradientUnits="userSpaceOnUse" x1="2" y1="2" x2="30" y2="30" gradientTransform="matrix(3,0,0,3,0,0)">
<stop offset="0" style="stop-color:rgb(29.803923%,45.882353%,13.725491%);stop-opacity:1;"/>
<stop offset="1" style="stop-color:rgb(52.941179%,81.176472%,24.313726%);stop-opacity:1;"/>
</linearGradient>
<mask id="mask1">
  <g filter="url(#alpha)">
<rect x="0" y="0" width="96" height="96" style="fill:rgb(0%,0%,0%);fill-opacity:0.5;stroke:none;"/>
  </g>
</mask>
<clipPath id="clip2">
  <rect x="0" y="0" width="96" height="96"/>
</clipPath>
<g id="surface8" clip-path="url(#clip2)">
<path style=" stroke:none;fill-rule:nonzero;fill:rgb(100%,100%,100%);fill-opacity:1;" d="M 24.15625 64.105469 L 72.15625 64.105469 C 75.46875 64.105469 78.15625 66.792969 78.15625 70.105469 L 78.15625 76.105469 C 78.15625 79.421875 75.46875 82.105469 72.15625 82.105469 L 24.15625 82.105469 C 20.84375 82.105469 18.15625 79.421875 18.15625 76.105469 L 18.15625 70.105469 C 18.15625 66.792969 20.84375 64.105469 24.15625 64.105469 Z M 24.15625 64.105469 "/>
</g>
<mask id="mask2">
  <g filter="url(#alpha)">
<rect x="0" y="0" width="96" height="96" style="fill:rgb(0%,0%,0%);fill-opacity:0.3;stroke:none;"/>
  </g>
</mask>
<clipPath id="clip3">
  <rect x="0" y="0" width="96" height="96"/>
</clipPath>
<g id="surface11" clip-path="url(#clip3)">
<path style=" stroke:none;fill-rule:nonzero;fill:rgb(100%,100%,100%);fill-opacity:1;" d="M 54.027344 36.105469 L 63.246094 36.105469 C 65.792969 36.105469 67.855469 38.113281 67.855469 40.589844 L 67.855469 49.5625 C 67.855469 52.039062 65.792969 54.050781 63.246094 54.050781 L 54.027344 54.050781 C 51.480469 54.050781 49.417969 52.039062 49.417969 49.5625 L 49.417969 40.589844 C 49.417969 38.113281 51.480469 36.105469 54.027344 36.105469 Z M 54.027344 36.105469 "/>
</g>
<mask id="mask3">
  <g filter="url(#alpha)">
<rect x="0" y="0" width="96" height="96" style="fill:rgb(0%,0%,0%);fill-opacity:0.6;stroke:none;"/>
  </g>
</mask>
<clipPath id="clip4">
  <rect x="0" y="0" width="96" height="96"/>
</clipPath>
<g id="surface14" clip-path="url(#clip4)">
<path style=" stroke:none;fill-rule:nonzero;fill:rgb(100%,100%,100%);fill-opacity:1;" d="M 32.515625 36.105469 L 41.734375 36.105469 C 44.28125 36.105469 46.34375 38.113281 46.34375 40.589844 L 46.34375 49.5625 C 46.34375 52.039062 44.28125 54.050781 41.734375 54.050781 L 32.515625 54.050781 C 29.96875 54.050781 27.90625 52.039062 27.90625 49.5625 L 27.90625 40.589844 C 27.90625 38.113281 29.96875 36.105469 32.515625 36.105469 Z M 32.515625 36.105469 "/>
</g>
<mask id="mask4">
  <g filter="url(#alpha)">
<rect x="0" y="0" width="96" height="96" style="fill:rgb(0%,0%,0%);fill-opacity:0.6;stroke:none;"/>
  </g>
</mask>
<clipPath id="clip5">
  <rect x="0" y="0" width="96" height="96"/>
</clipPath>
<g id="surface17" clip-path="url(#clip5)">
<path style=" stroke:none;fill-rule:nonzero;fill:rgb(100%,100%,100%);fill-opacity:1;" d="M 54.027344 57.039062 L 63.246094 57.039062 C 65.792969 57.039062 67.855469 59.046875 67.855469 61.527344 L 67.855469 70.5 C 67.855469 72.976562 65.792969 74.984375 63.246094 74.984375 L 54.027344 74.984375 C 51.480469 74.984375 49.417969 72.976562 49.417969 70.5 L 49.417969 61.527344 C 49.417969 59.046875 51.480469 57.039062 54.027344 57.039062 Z M 54.027344 57.039062 "/>
</g>
</defs>
<g id="surface1">
<use xlink:href="#surface5" mask="url(#mask0)"/>
<path style=" stroke:none;fill-rule:nonzero;fill:url(#linear0);" d="M 39 6 C 11.695312 6 6 11.820312 6 39 L 6 57 C 6 84.179688 11.695312 90 39 90 L 57 90 C 84.304688 90 90 84.179688 90 57 L 90 39 C 90 11.820312 84.304688 6 57 6 Z M 39 6 "/>
<path style=" stroke:none;fill-rule:nonzero;fill:rgb(92.54902%,92.54902%,92.54902%);fill-opacity:1;" d="M 48 30 C 39.734375 30 33 23.265625 33 15 C 33 14.171875 33.671875 13.5 34.5 13.5 C 35.328125 13.5 36 14.171875 36 15 C 36 21.644531 41.355469 27 48 27 C 54.644531 27 60 21.644531 60 15 C 60 14.171875 60.671875 13.5 61.5 13.5 C 62.328125 13.5 63 14.171875 63 15 C 63 23.265625 56.265625 30 48 30 Z M 48 30 "/>
<use xlink:href="#surface8" mask="url(#mask1)"/>
<use xlink:href="#surface11" mask="url(#mask2)"/>
<use xlink:href="#surface14" mask="url(#mask3)"/>
<use xlink:href="#surface17" mask="url(#mask4)"/>
<path style=" stroke:none;fill-rule:nonzero;fill:rgb(100%,100%,100%);fill-opacity:1;" d="M 32.515625 57.039062 L 41.734375 57.039062 C 44.28125 57.039062 46.34375 59.046875 46.34375 61.527344 L 46.34375 70.5 C 46.34375 72.976562 44.28125 74.984375 41.734375 74.984375 L 32.515625 74.984375 C 29.96875 74.984375 27.90625 72.976562 27.90625 70.5 L 27.90625 61.527344 C 27.90625 59.046875 29.96875 57.039062 32.515625 57.039062 Z M 32.515625 57.039062 "/>
</g>
</svg>
