
<svg xmlns="http://www.w3.org/2000/svg" xmlns:xlink="http://www.w3.org/1999/xlink" width="16px" height="16px" viewBox="0 0 16 16" version="1.1">
<defs>
<filter id="alpha" filterUnits="objectBoundingBox" x="0%" y="0%" width="100%" height="100%">
  <feColorMatrix type="matrix" in="SourceGraphic" values="0 0 0 0 1 0 0 0 0 1 0 0 0 0 1 0 0 0 1 0"/>
</filter>
<mask id="mask0">
  <g filter="url(#alpha)">
<rect x="0" y="0" width="16" height="16" style="fill:rgb(0%,0%,0%);fill-opacity:0.2;stroke:none;"/>
  </g>
</mask>
<clipPath id="clip1">
  <rect x="0" y="0" width="16" height="16"/>
</clipPath>
<g id="surface5" clip-path="url(#clip1)">
<path style=" stroke:none;fill-rule:nonzero;fill:rgb(0%,0%,0%);fill-opacity:1;" d="M 6.5 1.0625 C 1.949219 1.0625 1 2.03125 1 6.5625 L 1 9.5625 C 1 14.09375 1.949219 15.0625 6.5 15.0625 L 9.5 15.0625 C 14.050781 15.0625 15 14.09375 15 9.5625 L 15 6.5625 C 15 2.03125 14.050781 1.0625 9.5 1.0625 "/>
</g>
<linearGradient id="linear0" gradientUnits="userSpaceOnUse" x1="2" y1="2" x2="30" y2="30" gradientTransform="matrix(0.5,0,0,0.5,0,0)">
<stop offset="0" style="stop-color:rgb(29.803923%,45.882353%,13.725491%);stop-opacity:1;"/>
<stop offset="1" style="stop-color:rgb(52.941179%,81.176472%,24.313726%);stop-opacity:1;"/>
</linearGradient>
<mask id="mask1">
  <g filter="url(#alpha)">
<rect x="0" y="0" width="16" height="16" style="fill:rgb(0%,0%,0%);fill-opacity:0.5;stroke:none;"/>
  </g>
</mask>
<clipPath id="clip2">
  <rect x="0" y="0" width="16" height="16"/>
</clipPath>
<g id="surface8" clip-path="url(#clip2)">
<path style=" stroke:none;fill-rule:nonzero;fill:rgb(100%,100%,100%);fill-opacity:1;" d="M 4.027344 10.683594 L 12.027344 10.683594 C 12.578125 10.683594 13.027344 11.132812 13.027344 11.683594 L 13.027344 12.683594 C 13.027344 13.238281 12.578125 13.683594 12.027344 13.683594 L 4.027344 13.683594 C 3.472656 13.683594 3.027344 13.238281 3.027344 12.683594 L 3.027344 11.683594 C 3.027344 11.132812 3.472656 10.683594 4.027344 10.683594 Z M 4.027344 10.683594 "/>
</g>
<mask id="mask2">
  <g filter="url(#alpha)">
<rect x="0" y="0" width="16" height="16" style="fill:rgb(0%,0%,0%);fill-opacity:0.3;stroke:none;"/>
  </g>
</mask>
<clipPath id="clip3">
  <rect x="0" y="0" width="16" height="16"/>
</clipPath>
<g id="surface11" clip-path="url(#clip3)">
<path style=" stroke:none;fill-rule:nonzero;fill:rgb(100%,100%,100%);fill-opacity:1;" d="M 9.003906 6.015625 L 10.542969 6.015625 C 10.964844 6.015625 11.308594 6.351562 11.308594 6.765625 L 11.308594 8.261719 C 11.308594 8.671875 10.964844 9.007812 10.542969 9.007812 L 9.003906 9.007812 C 8.582031 9.007812 8.234375 8.671875 8.234375 8.261719 L 8.234375 6.765625 C 8.234375 6.351562 8.582031 6.015625 9.003906 6.015625 Z M 9.003906 6.015625 "/>
</g>
<mask id="mask3">
  <g filter="url(#alpha)">
<rect x="0" y="0" width="16" height="16" style="fill:rgb(0%,0%,0%);fill-opacity:0.6;stroke:none;"/>
  </g>
</mask>
<clipPath id="clip4">
  <rect x="0" y="0" width="16" height="16"/>
</clipPath>
<g id="surface14" clip-path="url(#clip4)">
<path style=" stroke:none;fill-rule:nonzero;fill:rgb(100%,100%,100%);fill-opacity:1;" d="M 5.417969 6.015625 L 6.957031 6.015625 C 7.378906 6.015625 7.722656 6.351562 7.722656 6.765625 L 7.722656 8.261719 C 7.722656 8.671875 7.378906 9.007812 6.957031 9.007812 L 5.417969 9.007812 C 4.996094 9.007812 4.652344 8.671875 4.652344 8.261719 L 4.652344 6.765625 C 4.652344 6.351562 4.996094 6.015625 5.417969 6.015625 Z M 5.417969 6.015625 "/>
</g>
<mask id="mask4">
  <g filter="url(#alpha)">
<rect x="0" y="0" width="16" height="16" style="fill:rgb(0%,0%,0%);fill-opacity:0.6;stroke:none;"/>
  </g>
</mask>
<clipPath id="clip5">
  <rect x="0" y="0" width="16" height="16"/>
</clipPath>
<g id="surface17" clip-path="url(#clip5)">
<path style=" stroke:none;fill-rule:nonzero;fill:rgb(100%,100%,100%);fill-opacity:1;" d="M 9.003906 9.507812 L 10.542969 9.507812 C 10.964844 9.507812 11.308594 9.839844 11.308594 10.253906 L 11.308594 11.75 C 11.308594 12.164062 10.964844 12.496094 10.542969 12.496094 L 9.003906 12.496094 C 8.582031 12.496094 8.234375 12.164062 8.234375 11.75 L 8.234375 10.253906 C 8.234375 9.839844 8.582031 9.507812 9.003906 9.507812 Z M 9.003906 9.507812 "/>
</g>
</defs>
<g id="surface1">
<use xlink:href="#surface5" mask="url(#mask0)"/>
<path style=" stroke:none;fill-rule:nonzero;fill:url(#linear0);" d="M 6.5 1 C 1.949219 1 1 1.96875 1 6.5 L 1 9.5 C 1 14.03125 1.949219 15 6.5 15 L 9.5 15 C 14.050781 15 15 14.03125 15 9.5 L 15 6.5 C 15 1.96875 14.050781 1 9.5 1 Z M 6.5 1 "/>
<path style=" stroke:none;fill-rule:nonzero;fill:rgb(92.54902%,92.54902%,92.54902%);fill-opacity:1;" d="M 8 5 C 6.621094 5 5.5 3.878906 5.5 2.5 C 5.5 2.363281 5.613281 2.25 5.75 2.25 C 5.886719 2.25 6 2.363281 6 2.5 C 6 3.609375 6.890625 4.5 8 4.5 C 9.109375 4.5 10 3.609375 10 2.5 C 10 2.363281 10.113281 2.25 10.25 2.25 C 10.386719 2.25 10.5 2.363281 10.5 2.5 C 10.5 3.878906 9.378906 5 8 5 Z M 8 5 "/>
<use xlink:href="#surface8" mask="url(#mask1)"/>
<use xlink:href="#surface11" mask="url(#mask2)"/>
<use xlink:href="#surface14" mask="url(#mask3)"/>
<use xlink:href="#surface17" mask="url(#mask4)"/>
<path style=" stroke:none;fill-rule:nonzero;fill:rgb(100%,100%,100%);fill-opacity:1;" d="M 5.417969 9.507812 L 6.957031 9.507812 C 7.378906 9.507812 7.722656 9.839844 7.722656 10.253906 L 7.722656 11.75 C 7.722656 12.164062 7.378906 12.496094 6.957031 12.496094 L 5.417969 12.496094 C 4.996094 12.496094 4.652344 12.164062 4.652344 11.75 L 4.652344 10.253906 C 4.652344 9.839844 4.996094 9.507812 5.417969 9.507812 Z M 5.417969 9.507812 "/>
</g>
</svg>
