
<svg xmlns="http://www.w3.org/2000/svg" xmlns:xlink="http://www.w3.org/1999/xlink" width="32px" height="32px" viewBox="0 0 32 32" version="1.1">
<defs>
<filter id="alpha" filterUnits="objectBoundingBox" x="0%" y="0%" width="100%" height="100%">
  <feColorMatrix type="matrix" in="SourceGraphic" values="0 0 0 0 1 0 0 0 0 1 0 0 0 0 1 0 0 0 1 0"/>
</filter>
<mask id="mask0">
  <g filter="url(#alpha)">
<rect x="0" y="0" width="32" height="32" style="fill:rgb(0%,0%,0%);fill-opacity:0.2;stroke:none;"/>
  </g>
</mask>
<clipPath id="clip1">
  <rect x="0" y="0" width="32" height="32"/>
</clipPath>
<g id="surface5" clip-path="url(#clip1)">
<path style=" stroke:none;fill-rule:nonzero;fill:rgb(0%,0%,0%);fill-opacity:1;" d="M 13 2.125 C 3.898438 2.125 2 4.066406 2 13.125 L 2 19.125 C 2 28.183594 3.898438 30.125 13 30.125 L 19 30.125 C 28.101562 30.125 30 28.183594 30 19.125 L 30 13.125 C 30 4.066406 28.101562 2.125 19 2.125 "/>
</g>
<linearGradient id="linear0" gradientUnits="userSpaceOnUse" x1="2" y1="2" x2="30" y2="30" >
<stop offset="0" style="stop-color:rgb(29.803923%,45.882353%,13.725491%);stop-opacity:1;"/>
<stop offset="1" style="stop-color:rgb(52.941179%,81.176472%,24.313726%);stop-opacity:1;"/>
</linearGradient>
<mask id="mask1">
  <g filter="url(#alpha)">
<rect x="0" y="0" width="32" height="32" style="fill:rgb(0%,0%,0%);fill-opacity:0.5;stroke:none;"/>
  </g>
</mask>
<clipPath id="clip2">
  <rect x="0" y="0" width="32" height="32"/>
</clipPath>
<g id="surface8" clip-path="url(#clip2)">
<path style=" stroke:none;fill-rule:nonzero;fill:rgb(100%,100%,100%);fill-opacity:1;" d="M 8.050781 21.367188 L 24.050781 21.367188 C 25.15625 21.367188 26.050781 22.265625 26.050781 23.367188 L 26.050781 25.367188 C 26.050781 26.472656 25.15625 27.367188 24.050781 27.367188 L 8.050781 27.367188 C 6.949219 27.367188 6.050781 26.472656 6.050781 25.367188 L 6.050781 23.367188 C 6.050781 22.265625 6.949219 21.367188 8.050781 21.367188 Z M 8.050781 21.367188 "/>
</g>
<mask id="mask2">
  <g filter="url(#alpha)">
<rect x="0" y="0" width="32" height="32" style="fill:rgb(0%,0%,0%);fill-opacity:0.3;stroke:none;"/>
  </g>
</mask>
<clipPath id="clip3">
  <rect x="0" y="0" width="32" height="32"/>
</clipPath>
<g id="surface11" clip-path="url(#clip3)">
<path style=" stroke:none;fill-rule:nonzero;fill:rgb(100%,100%,100%);fill-opacity:1;" d="M 18.007812 12.035156 L 21.082031 12.035156 C 21.929688 12.035156 22.617188 12.703125 22.617188 13.53125 L 22.617188 16.519531 C 22.617188 17.347656 21.929688 18.015625 21.082031 18.015625 L 18.007812 18.015625 C 17.160156 18.015625 16.472656 17.347656 16.472656 16.519531 L 16.472656 13.53125 C 16.472656 12.703125 17.160156 12.035156 18.007812 12.035156 Z M 18.007812 12.035156 "/>
</g>
<mask id="mask3">
  <g filter="url(#alpha)">
<rect x="0" y="0" width="32" height="32" style="fill:rgb(0%,0%,0%);fill-opacity:0.6;stroke:none;"/>
  </g>
</mask>
<clipPath id="clip4">
  <rect x="0" y="0" width="32" height="32"/>
</clipPath>
<g id="surface14" clip-path="url(#clip4)">
<path style=" stroke:none;fill-rule:nonzero;fill:rgb(100%,100%,100%);fill-opacity:1;" d="M 10.839844 12.035156 L 13.910156 12.035156 C 14.761719 12.035156 15.449219 12.703125 15.449219 13.53125 L 15.449219 16.519531 C 15.449219 17.347656 14.761719 18.015625 13.910156 18.015625 L 10.839844 18.015625 C 9.988281 18.015625 9.300781 17.347656 9.300781 16.519531 L 9.300781 13.53125 C 9.300781 12.703125 9.988281 12.035156 10.839844 12.035156 Z M 10.839844 12.035156 "/>
</g>
<mask id="mask4">
  <g filter="url(#alpha)">
<rect x="0" y="0" width="32" height="32" style="fill:rgb(0%,0%,0%);fill-opacity:0.6;stroke:none;"/>
  </g>
</mask>
<clipPath id="clip5">
  <rect x="0" y="0" width="32" height="32"/>
</clipPath>
<g id="surface17" clip-path="url(#clip5)">
<path style=" stroke:none;fill-rule:nonzero;fill:rgb(100%,100%,100%);fill-opacity:1;" d="M 18.007812 19.011719 L 21.082031 19.011719 C 21.929688 19.011719 22.617188 19.683594 22.617188 20.507812 L 22.617188 23.5 C 22.617188 24.324219 21.929688 24.996094 21.082031 24.996094 L 18.007812 24.996094 C 17.160156 24.996094 16.472656 24.324219 16.472656 23.5 L 16.472656 20.507812 C 16.472656 19.683594 17.160156 19.011719 18.007812 19.011719 Z M 18.007812 19.011719 "/>
</g>
</defs>
<g id="surface1">
<use xlink:href="#surface5" mask="url(#mask0)"/>
<path style=" stroke:none;fill-rule:nonzero;fill:url(#linear0);" d="M 13 2 C 3.898438 2 2 3.941406 2 13 L 2 19 C 2 28.058594 3.898438 30 13 30 L 19 30 C 28.101562 30 30 28.058594 30 19 L 30 13 C 30 3.941406 28.101562 2 19 2 Z M 13 2 "/>
<path style=" stroke:none;fill-rule:nonzero;fill:rgb(92.54902%,92.54902%,92.54902%);fill-opacity:1;" d="M 16 10 C 13.246094 10 11 7.753906 11 5 C 11 4.722656 11.222656 4.5 11.5 4.5 C 11.777344 4.5 12 4.722656 12 5 C 12 7.214844 13.785156 9 16 9 C 18.214844 9 20 7.214844 20 5 C 20 4.722656 20.222656 4.5 20.5 4.5 C 20.777344 4.5 21 4.722656 21 5 C 21 7.753906 18.753906 10 16 10 Z M 16 10 "/>
<use xlink:href="#surface8" mask="url(#mask1)"/>
<use xlink:href="#surface11" mask="url(#mask2)"/>
<use xlink:href="#surface14" mask="url(#mask3)"/>
<use xlink:href="#surface17" mask="url(#mask4)"/>
<path style=" stroke:none;fill-rule:nonzero;fill:rgb(100%,100%,100%);fill-opacity:1;" d="M 10.839844 19.011719 L 13.910156 19.011719 C 14.761719 19.011719 15.449219 19.683594 15.449219 20.507812 L 15.449219 23.5 C 15.449219 24.324219 14.761719 24.996094 13.910156 24.996094 L 10.839844 24.996094 C 9.988281 24.996094 9.300781 24.324219 9.300781 23.5 L 9.300781 20.507812 C 9.300781 19.683594 9.988281 19.011719 10.839844 19.011719 Z M 10.839844 19.011719 "/>
</g>
</svg>
